<svg width="800px" height="800px" viewBox="0 0 32 32" fill="none" xmlns="http://www.w3.org/2000/svg">

<g id="SVGRepo_bgCarrier" stroke-width="0"/>

<g id="SVGRepo_tracerCarrier" stroke-linecap="round" stroke-linejoin="round"/>

<g id="SVGRepo_iconCarrier"> <g clip-path="url(#clip0_901_2595)"> <path d="M1 31C1 31 1.687 27.379 2 26C2.208 25.083 3 23 11 22C11 22 12 25 16 25C20 25 21 22 21 22C29 23 29.792 25.021 30 26C30.294 27.384 31 31 31 31M10 11C10 14.866 13 18 16 18C19 18 22 14.866 22 11M8 30V31M24 30V31M6 8H23C23 4.134 19.866 1 16 1C12.134 1 9 4.134 9 8" stroke="#76ABAE" stroke-width="2" stroke-linecap="round" stroke-linejoin="round"/> </g> <defs> <clipPath id="clip0_901_2595"> <rect width="32" height="32" fill="white"/> </clipPath> </defs> </g>

</svg>