<svg width="800px" height="800px" viewBox="0 0 32 32" fill="none" xmlns="http://www.w3.org/2000/svg">

<g id="SVGRepo_bgCarrier" stroke-width="0"/>

<g id="SVGRepo_tracerCarrier" stroke-linecap="round" stroke-linejoin="round"/>

<g id="SVGRepo_iconCarrier"> <g clip-path="url(#clip0_901_1404)"> <path d="M1 31C1 31 1.687 27.379 2 26C2.208 25.083 3 23 11 22C11 22 12 25 16 25C20 25 21 22 21 22C29 23 29.792 25.021 30 26C30.294 27.384 31 31 31 31M7 19.501L8 8C8.531 3.563 12.134 1 16 1C19.866 1 23.469 3.594 24 8L25 19.5M8 30V31M24 30V31M18.999 7C16 9 11 9 11 9C11 14 13 18 16 18C19 18 21 14 21 9" stroke="#76ABAE" stroke-width="2" stroke-linecap="round" stroke-linejoin="round"/> </g> <defs> <clipPath id="clip0_901_1404"> <rect width="32" height="32" fill="white"/> </clipPath> </defs> </g>

</svg>